<?xml version="1.0" encoding="UTF-8"?>
<svg id="Layer_2" data-name="Layer 2" xmlns="http://www.w3.org/2000/svg" viewBox="0 0 118.34 26.88">
  <defs>
    <style>
      .cls-1 {
        fill: #a27fa4;
      }

      .cls-2 {
        fill: #e77e80;
      }
    </style>
  </defs>
  <g id="Layer_1-2" data-name="Layer 1">
    <g>
      <g>
        <g>
          <path class="cls-1" d="M18.53,26.5s-.03,0-.04,0c-.41,0-.78-.21-1.04-.57-1.1-1.54-.24-6.48.7-9.34.19-.58.77-2.34,2.14-2.4.92-.05,1.69.73,2.22,1.52.1-.23.2-.47.3-.7.15-.36.56-.55.94-.42.37.13.59.52.49.9-.63,2.51-1.33,6.96-.5,8.19.1.15.18.18.26.19,1.01.13,3.51-3.33,5.67-8.7.16-.39.6-.57.98-.42.39.16.57.6.42.98-.95,2.36-4.27,10.04-7.27,9.63-.53-.07-.99-.36-1.31-.84-.16-.24-.68-1.2-.63-3.58-2.44,5.38-2.89,5.54-3.34,5.54ZM20.36,15.7h0c-.07,0-.41.24-.78,1.36-1.02,3.12-1.27,6.1-1.09,7.39.7-1.29,1.98-4.07,3.27-7.01-.47-.97-1.13-1.74-1.4-1.74Z"/>
          <path class="cls-1" d="M58.75,26.5s-.03,0-.04,0c-.41,0-.78-.21-1.04-.57-1.1-1.54-.24-6.48.7-9.34.19-.58.77-2.34,2.14-2.4.91-.05,1.69.73,2.22,1.52.1-.23.2-.47.3-.7.15-.36.56-.55.94-.42.37.13.59.52.49.9-.63,2.51-1.33,6.96-.5,8.19.1.15.18.18.26.19.61.09,2.33-1.51,4.62-6.22.18-.38.63-.53,1.01-.35.38.18.53.63.35,1.01-2.38,4.92-4.47,7.29-6.18,7.06-.53-.07-.99-.36-1.31-.84-.16-.24-.68-1.2-.63-3.58-2.44,5.38-2.89,5.54-3.34,5.54ZM60.58,15.7h0c-.07,0-.41.24-.78,1.36-1.02,3.12-1.27,6.1-1.09,7.39.7-1.29,1.98-4.07,3.27-7.01-.47-.97-1.13-1.74-1.4-1.74Z"/>
          <path class="cls-1" d="M31.95,26.88c-.84,0-1.55-.36-2.05-1.05-3.08-4.22,2.44-21.94,3.09-23.94.13-.4.55-.62.95-.49.4.13.62.55.49.95-.02.05-1.54,4.84-2.69,10.06-1.96,8.95-1.23,11.69-.62,12.53.22.3.47.43.83.43.74-.21,3.12-4.07,4.29-7.79.12-.4.55-.62.95-.5.4.12.62.55.5.95-.56,1.8-1.5,3.9-2.51,5.64-1.68,2.88-2.64,3.21-3.22,3.21Z"/>
          <path class="cls-1" d="M105.74,26.88c-.84,0-1.55-.36-2.05-1.05-3.08-4.22,2.44-21.94,3.09-23.94.13-.4.55-.62.95-.49.4.13.62.55.49.95-.02.05-1.54,4.84-2.69,10.06-1.96,8.95-1.23,11.69-.62,12.53.21.29.45.42.79.43.71-.29,2.45-3.66,3.75-7.79.12-.4.55-.62.95-.5.4.12.62.55.49.95-.46,1.48-2.89,8.85-5.15,8.85Z"/>
          <path class="cls-1" d="M38.04,25.12c-.59,0-1.1-.25-1.47-.73-1.64-2.13.06-9.04.41-10.4.11-.4.52-.64.92-.54.4.11.64.52.54.92-.81,3.09-1.56,7.96-.68,9.1.09.12.17.14.27.14,1.23,0,2.62-2.45,3.96-4.81.24-.42.48-.85.74-1.29.21-.36.67-.48,1.03-.27s.48.67.27,1.03c-.25.43-.49.86-.73,1.28-1.69,2.99-3.16,5.58-5.27,5.58Z"/>
          <path class="cls-1" d="M82.81,25.08c-.46,0-.88-.21-1.17-.58-1.42-1.81.08-8.5.58-10.5.1-.4.51-.65.91-.55.41.1.65.51.55.91-1.08,4.4-1.48,8.71-.84,9.23.5-.01.71-.42,1.38-2.15.29-.74.65-1.67,1.15-2.74.18-.38.63-.54,1.01-.36.38.18.54.63.36,1.01-.48,1.02-.83,1.92-1.11,2.64-.7,1.8-1.2,3.1-2.82,3.1Z"/>
          <path class="cls-1" d="M52.95,25.83c-.58,0-1.09-.25-1.47-.71-.3-.38-1.74-2.66-.03-10.66.09-.41.49-.67.9-.58.41.09.67.49.58.9-.68,3.2-1.22,8.23-.28,9.39.1.13.19.15.29.15,1.35,0,2.88-2.52,4.49-5.18l.46-.75c.22-.36.68-.47,1.04-.25.36.22.47.68.25,1.04l-.45.75c-1.92,3.17-3.58,5.91-5.79,5.91Z"/>
          <path class="cls-1" d="M45.07,25.78h-.03c-.85,0-1.58-.35-2.11-1.01-1.09-1.35-1.1-3.75-.85-4.94.74-3.49,1.86-5.34,3.44-5.65,1.9-.38,3.4,1.73,3.56,1.97.23.35.15.81-.2,1.05-.35.23-.81.14-1.05-.2-.27-.4-1.23-1.5-2.02-1.34-.41.08-1.45.68-2.25,4.48-.21,1-.14,2.83.55,3.68.25.3.54.45.94.45h.02c2.07,0,3.8-1.73,5.79-5.78.18-.37.64-.53,1.01-.34.37.18.53.64.34,1.01-1.61,3.28-3.72,6.63-7.15,6.63Z"/>
          <path class="cls-1" d="M88.54,25.08c-1.6,0-2.52-.77-3-1.42-.84-1.13-.94-2.62-.67-3.54.73-2.47,1.79-3.86,3.16-4.13,1.82-.36,3.29,1.42,3.35,1.5.26.32.21.8-.11,1.06-.32.26-.8.21-1.06-.11-.27-.32-1.13-1.13-1.89-.97-.75.15-1.46,1.25-2,3.07-.17.57-.07,1.53.43,2.21.4.54,1.01.81,1.79.81,1.62,0,3.78-3.09,4.76-5.04.19-.37.64-.52,1.01-.33.37.19.52.64.33,1.01-.3.6-3.05,5.87-6.11,5.87Z"/>
          <path class="cls-1" d="M95.77,25.38c-.1,0-.21,0-.31-.01-.87-.07-1.59-.46-2.08-1.12-1.22-1.66-.64-4.51-.57-4.83.06-.25.23-.44.45-.54.02-.19.05-.39.08-.6.46-2.53,2.08-3.06,3.34-3.06.88,0,1.65.32,2.23.91,1.13,1.17,1.19,3.02,1.18,3.55,1.77-1.36,3.21-3.09,3.23-3.11.27-.32.74-.37,1.06-.1.32.27.37.74.1,1.06-.08.1-2.09,2.51-4.41,4.02-.11.07-.21.13-.32.2-.3,1-.82,2-1.61,2.71-.68.6-1.49.91-2.37.91ZM94.15,21.95c.05.53.18,1.04.45,1.4.23.31.54.47.99.51.59.05,1.1-.12,1.55-.52.22-.2.42-.44.59-.72-1.22.31-2.35.21-3.18-.35-.12-.08-.26-.19-.4-.32ZM96.69,16.74c-1.07,0-1.62.55-1.86,1.82-.16.85-.19,1.96.56,2.46.67.45,1.84.33,3.07-.27.08-.36.12-.71.13-1.03.02-.63-.11-1.86-.75-2.53-.29-.3-.67-.45-1.14-.45Z"/>
          <path class="cls-1" d="M113.24,25.66h-.01c-1.21,0-2.28-.47-3.07-1.34-1.02-1.11-1.38-2.63-1.3-3.64.05-.55.12-1.05.2-1.52,0-.03,0-.06.02-.09.69-3.6,2.43-4.94,3.96-4.95,1.21,0,2.18.85,2.3,1.99.16,1.54-.22,2.69-1.1,3.41-1.15.93-2.8.83-3.8.65-.03.2-.05.42-.07.64-.06.66.24,1.76.91,2.49.51.56,1.17.85,1.96.85h0c2.46,0,3.61-2.46,3.66-2.56.17-.38.62-.55,1-.38.38.17.55.62.38,1-.06.14-1.59,3.45-5.03,3.45ZM110.7,18.69c.79.14,1.93.19,2.57-.34.47-.38.65-1.08.55-2.08-.04-.37-.36-.64-.78-.64h0c-.66,0-1.75.7-2.34,3.06Z"/>
          <path class="cls-1" d="M69.21,25.68c-.06,0-.12,0-.19-.02-.3-.08-.53-.33-.56-.65-.83-7.2,1.66-10.57,1.76-10.71.25-.33.73-.4,1.06-.14.33.25.4.72.15,1.06-.03.05-1.76,2.47-1.62,7.59,1.75-2.35,4.28-5.45,5.65-5.64.42-.06.72.09.89.22.56.44.48,1.28.35,2.54-.1,1.05-.26,2.64.19,3.16.06.07.17.16.41.17.04,0,.09,0,.13,0,2.16,0,3.71-2.54,3.72-2.56.21-.36.68-.47,1.04-.26.36.21.48.68.26,1.03-.08.14-2.08,3.44-5.22,3.3-.61-.03-1.12-.27-1.49-.69-.87-1.01-.69-2.84-.55-4.3.03-.28.06-.62.08-.9-1.13.83-3.55,3.78-5.44,6.49-.14.2-.38.32-.62.32Z"/>
        </g>
        <circle class="cls-1" cx="83.39" cy="9.16" r=".89"/>
        <circle class="cls-1" cx="53.39" cy="9.59" r=".89"/>
        <circle class="cls-1" cx="38.93" cy="9.16" r=".89"/>
      </g>
      <g>
        <path class="cls-2" d="M10.31,20.95c-.86,0-3.67-2.36-5.37-4.07C2.68,14.62,0,11.3,0,8.32v-.11c0-.48,0-1.08.31-1.62.65-1.12,2.13-1.31,3.19-.85.98.43,1.63,1.26,2.16,2.01,2.26,3.18,3.94,6.81,4.92,10.6.57-1.04,1.14-2.09,1.68-3.14.17-.34.59-.47.92-.3.34.17.47.59.3.92-.82,1.6-1.7,3.19-2.55,4.73,0,0,0,0,0,0-.11.22-.34.37-.61.37ZM2.36,6.88c-.36,0-.71.13-.86.4-.13.22-.13.57-.13.94v.11c0,3.65,5.42,8.67,7.92,10.55-.92-3.69-2.55-7.23-4.75-10.32-.43-.6-.93-1.26-1.59-1.55-.18-.08-.39-.12-.59-.12Z"/>
        <path class="cls-2" d="M10.31,20.95c-.31,0-.58-.21-.66-.52-1.5-5.85-1.13-10.73,1.18-15.8.63-1.38,1.56-3.11,3.17-4.21.33-.23.85-.52,1.45-.41.43.08.8.34,1.15.8,1.21,1.6,1.32,3.88.34,6.94-.35,1.09-.75,2.18-1.23,3.33-.15.35-.55.52-.9.37-.35-.15-.51-.55-.37-.9.46-1.12.85-2.17,1.19-3.22.84-2.61.79-4.48-.13-5.7-.18-.24-.28-.27-.3-.27-.03,0-.14,0-.43.19-1.33.91-2.14,2.42-2.7,3.64-2.21,4.83-2.53,9.29-1.1,14.89.09.37-.13.74-.49.83-.06.01-.11.02-.17.02Z"/>
        <circle class="cls-2" cx="14.1" cy="13.17" r=".66"/>
      </g>
    </g>
  </g>
</svg>